<svg height="512pt" viewBox="0 -11 512 512" width="512pt" xmlns="http://www.w3.org/2000/svg"><path d="m453.140625 439.78125h-394.78125c-14.992187 0-27.191406-12.199219-27.191406-27.191406v-316.226563c0-14.992187 12.199219-27.191406 27.191406-27.191406h394.78125c14.992187 0 27.191406 12.195313 27.191406 27.191406v316.226563c0 14.992187-12.199219 27.191406-27.191406 27.191406zm0 0" fill="#576574"/><path d="m51.046875 412.589844v-316.226563c0-14.992187 12.195313-27.191406 27.191406-27.191406h-19.878906c-14.992187 0-27.191406 12.195313-27.191406 27.191406v316.226563c0 14.992187 12.199219 27.191406 27.191406 27.191406h19.878906c-14.996093 0-27.191406-12.199219-27.191406-27.191406zm0 0" fill="#3e4b5a"/><path d="m443.570312 99.382812h-375.640624c-3.617188 0-6.546876 2.933594-6.546876 6.550782v297.085937c0 3.617188 2.929688 6.546875 6.546876 6.546875h375.640624c3.617188 0 6.546876-2.929687 6.546876-6.546875v-297.085937c0-3.617188-2.929688-6.550782-6.546876-6.550782zm0 0" fill="#e4eaf8"/><path d="m81.257812 403.019531v-297.085937c0-3.617188 2.933594-6.546875 6.550782-6.546875h-19.878906c-3.617188 0-6.546876 2.929687-6.546876 6.546875v297.085937c0 3.617188 2.929688 6.550781 6.546876 6.550781h19.878906c-3.617188-.003906-6.550782-2.933593-6.550782-6.550781zm0 0" fill="#ccd2db"/><path d="m443.570312 98.382812h-375.640624c-3.617188 0-6.546876 2.933594-6.546876 6.550782v28.699218h388.734376v-28.699218c0-3.617188-2.929688-6.550782-6.546876-6.550782zm0 0" fill="#54a0ff"/><path d="m106.617188 98.382812h-38.6875c-3.617188 0-6.546876 2.933594-6.546876 6.550782v28.699218h45.234376zm0 0" fill="#ff6b6b"/><path d="m126.492188 98.382812h-38.683594c-3.617188 0-6.550782 2.933594-6.550782 6.550782v28.699218h45.234376zm0 0" fill="#ff6b6b"/><path d="m87.808594 98.382812h-19.878906c-3.617188 0-6.546876 2.933594-6.546876 6.550782v28.699218h19.875v-28.699218c0-3.617188 2.933594-6.550782 6.550782-6.550782zm0 0" fill="#ee5253"/><path d="m493.902344 481.417969h-476.304688c-5.714844 0-10.347656-4.632813-10.347656-10.347657v-21.046874c0-5.714844 4.632812-10.347657 10.347656-10.347657h476.304688c5.714844 0 10.347656 4.632813 10.347656 10.347657v21.046874c0 5.714844-4.632812 10.347657-10.347656 10.347657zm0 0" fill="#e4eaf8"/><path d="m493.902344 460.042969h-476.304688c-5.65625 0-10.25-4.546875-10.339844-10.183594 0 .054687-.007812.109375-.007812.164063v21.046874c0 5.714844 4.632812 10.347657 10.351562 10.347657h476.300782c5.714844 0 10.347656-4.632813 10.347656-10.347657v-21.046874c0-.054688-.007812-.109376-.007812-.164063-.089844 5.636719-4.683594 10.183594-10.339844 10.183594zm0 0" fill="#ccd2db"/><path d="m187.796875 439.675781v5.851563c0 7.984375 6.511719 14.515625 14.472656 14.515625h106.960938c7.960937 0 14.476562-6.53125 14.476562-14.515625v-5.851563zm0 0" fill="#ccd2db"/><path d="m207.671875 445.527344v-5.851563h-19.875v5.851563c0 7.984375 6.511719 14.515625 14.472656 14.515625h19.875c-7.957031 0-14.472656-6.53125-14.472656-14.515625zm0 0" fill="#bcc2cc"/><path d="m397.949219 7.210938h-284.398438c-6.5625 0-11.882812 5.320312-11.882812 11.878906v390.476562h308.164062v-390.476562c0-6.558594-5.320312-11.878906-11.882812-11.878906zm0 0" fill="#8ac2ff"/><path d="m133.550781 7.210938h-20c-6.5625 0-11.882812 5.320312-11.882812 11.878906v390.476562h20.003906v-390.476562c0-6.558594 5.316406-11.878906 11.878906-11.878906zm0 0" fill="#54a0ff"/><path d="m365.390625 44.472656h-219.28125c-3.59375 0-6.511719 2.917969-6.511719 6.511719v21.21875c0 3.59375 2.917969 6.511719 6.511719 6.511719h219.28125c3.597656 0 6.511719-2.917969 6.511719-6.511719v-21.21875c0-3.59375-2.914063-6.511719-6.511719-6.511719zm0 0" fill="#feca57"/><path d="m159.601562 72.203125v-21.21875c0-3.59375 2.914063-6.511719 6.507813-6.511719h-20c-3.59375 0-6.511719 2.917969-6.511719 6.511719v21.21875c0 3.59375 2.917969 6.511719 6.511719 6.511719h20c-3.59375 0-6.507813-2.914063-6.507813-6.511719zm0 0" fill="#f4b537"/><path d="m220.296875 108.257812h-75.867187c-2.667969 0-4.832032 2.160157-4.832032 4.832032v90.46875c0 2.667968 2.164063 4.832031 4.832032 4.832031h75.867187c2.671875 0 4.832031-2.164063 4.832031-4.832031v-90.46875c0-2.671875-2.160156-4.832032-4.832031-4.832032zm0 0" fill="#e4eaf8"/><path d="m159.601562 203.558594v-90.472656c0-2.667969 2.164063-4.832032 4.832032-4.832032h-20c-2.671875 0-4.835938 2.164063-4.835938 4.832032v90.472656c0 2.667968 2.164063 4.832031 4.835938 4.832031h20c-2.667969 0-4.832032-2.164063-4.832032-4.832031zm0 0" fill="#ccd2db"/><path d="m494.152344 432.570312h-12.222656c3.875-5.597656 6.152343-12.382812 6.152343-19.691406v-140.613281c0-4.140625-3.359375-7.5-7.5-7.5-4.144531 0-7.5 3.359375-7.5 7.5v140.613281c0 10.851563-8.824219 19.679688-19.671875 19.691406-20.675781 0-377.308594 0-394.820312 0-10.847656-.011718-19.667969-8.839843-19.667969-19.691406v-316.226562c0-10.855469 8.832031-19.691406 19.6875-19.691406h35.808594v15.214843h-26.238281c-7.746094 0-14.046876 6.300781-14.046876 14.046875v297.085938c0 7.746094 6.300782 14.050781 14.046876 14.050781h375.636718c7.75 0 14.050782-6.304687 14.050782-14.050781v-297.085938c0-7.746094-6.300782-14.046875-14.050782-14.046875h-26.234375v-15.214843h35.808594c10.855469 0 19.691406 8.835937 19.691406 19.691406v140.613281c0 4.144531 3.355469 7.5 7.5 7.5 4.140625 0 7.5-3.355469 7.5-7.5v-140.613281c0-19.128906-15.5625-34.691406-34.691406-34.691406h-35.808594v-42.578126c0-10.6875-8.695312-19.382812-19.382812-19.382812h-124.699219c-4.144531 0-7.5 3.355469-7.5 7.5s3.355469 7.5 7.5 7.5h124.699219c2.414062 0 4.378906 1.964844 4.378906 4.382812v382.972657h-293.160156v-382.972657c0-2.417968 1.964843-4.382812 4.378906-4.382812h124.703125c4.140625 0 7.5-3.355469 7.5-7.5s-3.359375-7.5-7.5-7.5h-124.703125c-10.6875 0-19.378906 8.695312-19.378906 19.382812v42.578126h-35.808594c-19.128906 0-34.691406 15.5625-34.691406 34.691406v316.226562c0 7.308594 2.277343 14.089844 6.152343 19.6875h-12.222656c-9.839844.003906-17.847656 8.011719-17.847656 17.851563v20.941406c0 9.839844 8.007812 17.847656 17.847656 17.847656h476.304688c9.839844 0 17.847656-8.007812 17.847656-17.847656v-20.941406c0-9.839844-8.007812-17.847657-17.847656-17.847657zm-76.570313-30.210937v-259.9375h25.285157v259.9375zm25.285157-295.183594v20.246094h-25.285157v-20.246094zm-373.734376 0h25.285157v20.246094h-25.285157zm0 295.183594v-259.9375h25.285157v259.9375zm247.121094 45.210937c-.746094 3.046876-3.503906 5.3125-6.773437 5.3125h-106.960938c-3.273437 0-6.027343-2.265624-6.773437-5.3125zm180.746094 23.789063c0 1.570313-1.277344 2.847656-2.847656 2.847656h-476.304688c-1.570312 0-2.847656-1.277343-2.847656-2.847656v-20.9375c0-1.570313 1.277344-2.851563 2.847656-2.851563h162.765625c.855469 11.34375 10.347657 20.316407 21.90625 20.316407h106.960938c11.554687 0 21.050781-8.972657 21.90625-20.316407h162.765625c1.570312 0 2.847656 1.277344 2.847656 2.851563zm0 0"/><path d="m379.652344 51.273438c0-7.726563-6.285156-14.011719-14.011719-14.011719h-219.28125c-7.726563 0-14.011719 6.285156-14.011719 14.011719v21.222656c0 7.722656 6.285156 14.007812 14.011719 14.007812h219.28125c7.726563 0 14.011719-6.285156 14.011719-14.007812zm-15.003906 20.230468h-217.300782v-19.242187h217.300782zm0 0"/><path d="m372.152344 101.046875h-116.152344c-4.144531 0-7.5 3.355469-7.5 7.5s3.355469 7.5 7.5 7.5h116.152344c4.140625 0 7.5-3.355469 7.5-7.5s-3.359375-7.5-7.5-7.5zm0 0"/><path d="m372.152344 134.136719h-116.152344c-4.144531 0-7.5 3.355469-7.5 7.5 0 4.140625 3.355469 7.5 7.5 7.5h116.152344c4.140625 0 7.5-3.359375 7.5-7.5 0-4.144531-3.359375-7.5-7.5-7.5zm0 0"/><path d="m372.152344 167.226562h-116.152344c-4.144531 0-7.5 3.355469-7.5 7.5 0 4.140626 3.355469 7.5 7.5 7.5h116.152344c4.140625 0 7.5-3.359374 7.5-7.5 0-4.144531-3.359375-7.5-7.5-7.5zm0 0"/><path d="m372.152344 200.316406h-116.152344c-4.144531 0-7.5 3.355469-7.5 7.5 0 4.140625 3.355469 7.5 7.5 7.5h116.152344c4.140625 0 7.5-3.359375 7.5-7.5 0-4.144531-3.359375-7.5-7.5-7.5zm0 0"/><path d="m372.152344 233.40625h-232.304688c-4.140625 0-7.5 3.355469-7.5 7.5s3.359375 7.5 7.5 7.5h232.304688c4.140625 0 7.5-3.355469 7.5-7.5s-3.359375-7.5-7.5-7.5zm0 0"/><path d="m372.152344 266.496094h-232.304688c-4.140625 0-7.5 3.355468-7.5 7.5 0 4.144531 3.359375 7.5 7.5 7.5h232.304688c4.140625 0 7.5-3.355469 7.5-7.5 0-4.144532-3.359375-7.5-7.5-7.5zm0 0"/><path d="m372.152344 299.585938h-232.304688c-4.140625 0-7.5 3.355468-7.5 7.5 0 4.144531 3.359375 7.5 7.5 7.5h232.304688c4.140625 0 7.5-3.355469 7.5-7.5 0-4.144532-3.359375-7.5-7.5-7.5zm0 0"/><path d="m372.152344 332.675781h-232.304688c-4.140625 0-7.5 3.359375-7.5 7.5 0 4.144531 3.359375 7.5 7.5 7.5h232.304688c4.140625 0 7.5-3.355469 7.5-7.5 0-4.140625-3.359375-7.5-7.5-7.5zm0 0"/><path d="m372.152344 366.078125h-232.304688c-4.140625 0-7.5 3.355469-7.5 7.5s3.359375 7.5 7.5 7.5h232.304688c4.140625 0 7.5-3.355469 7.5-7.5s-3.359375-7.5-7.5-7.5zm0 0"/><path d="m144.679688 216.179688h75.867187c6.800781 0 12.332031-5.53125 12.332031-12.332032v-90.46875c0-6.800781-5.53125-12.332031-12.332031-12.332031h-75.867187c-6.800782 0-12.332032 5.53125-12.332032 12.332031v90.46875c0 6.800782 5.53125 12.332032 12.332032 12.332032zm2.667968-100.132813h70.53125v85.132813h-70.53125zm0 0"/></svg>